<svg width="72" height="96" viewBox="0 0 72 96" fill="none" xmlns="http://www.w3.org/2000/svg">
    <path d="M58.7661 58.5771L51.7254 64.5489L47.0508 61.0445C44.1572 63.9592 40.5699 65.8079 36.2889 66.5907C31.6721 67.4349 27.676 66.9294 24.3006 65.0743C20.9252 63.2192 18.8653 60.2561 18.1209 56.1849C17.6528 53.6247 17.8239 51.121 18.6343 48.674C19.4867 46.2194 20.8946 44.0751 22.8582 42.2414C21.2573 40.3654 20.2228 38.1473 19.7546 35.5871C19.0716 31.8517 19.8086 28.5289 21.9657 25.6188C24.1648 22.701 27.3628 20.8584 31.5599 20.0909C34.8336 19.4923 37.8793 19.7812 40.6968 20.9576C43.5144 22.134 45.8825 24.1733 47.8011 27.0756L40.0855 33.6262C38.2851 30.659 36.0838 29.4133 33.4816 29.8891C32.2225 30.1193 31.2594 30.6641 30.5925 31.5234C29.9598 32.3331 29.7432 33.2835 29.9427 34.3748C30.0809 35.1303 30.3907 35.876 30.8723 36.6121C31.3882 37.2985 31.8772 37.838 32.3394 38.2306C32.8015 38.6232 33.5367 39.2044 34.545 39.9743L44.3125 47.492C44.8255 45.3163 45.0959 42.8813 45.1238 40.187L54.4348 43.4291C54.1407 47.0395 53.3617 50.37 52.0978 53.4204L58.7661 58.5771ZM35.4266 57.2495C37.0635 56.9502 38.4711 56.3458 39.6494 55.4364L30.0024 48.2219L29.5556 47.9132C28.2329 49.4563 27.7557 51.2351 28.1241 53.2497C28.4081 54.8027 29.1629 55.9659 30.3887 56.7393C31.6068 57.4708 33.2861 57.6409 35.4266 57.2495Z" fill="#B6FFB9"/>
    <path d="M58.7661 58.5771L60.5449 60.6743L63.1339 58.4784L60.4484 56.4017L58.7661 58.5771ZM51.7254 64.5489L50.0759 66.7492L51.8312 68.0651L53.5042 66.6461L51.7254 64.5489ZM47.0508 61.0445L48.7004 58.8442L46.7854 57.4086L45.0993 59.1071L47.0508 61.0445ZM24.3006 65.0743L25.6252 62.6643L24.3006 65.0743ZM18.6343 48.674L16.0365 47.772L16.03 47.7907L16.0237 47.8095L18.6343 48.674ZM22.8582 42.2414L24.7352 44.2512L26.6569 42.4565L24.95 40.4563L22.8582 42.2414ZM21.9657 25.6188L19.7696 23.9637L19.763 23.9724L19.7564 23.9812L21.9657 25.6188ZM40.6968 20.9576L39.6373 23.4953L40.6968 20.9576ZM47.8011 27.0756L49.5809 29.1719L51.4401 27.5935L50.0951 25.559L47.8011 27.0756ZM40.0855 33.6262L37.7345 35.0527L39.4072 37.8096L41.8654 35.7226L40.0855 33.6262ZM30.5925 31.5234L32.7594 33.2167L32.7649 33.2096L30.5925 31.5234ZM30.8723 36.6121L28.5711 38.1177L28.6202 38.1927L28.674 38.2643L30.8723 36.6121ZM34.545 39.9743L36.2223 37.795L36.2139 37.7886L34.545 39.9743ZM44.3125 47.492L42.6352 49.6713L46.0114 52.2698L46.9891 48.1231L44.3125 47.492ZM45.1238 40.187L46.0281 37.5899L42.4135 36.3313L42.3739 40.1586L45.1238 40.187ZM54.4348 43.4291L57.1757 43.6523L57.3484 41.5317L55.3391 40.832L54.4348 43.4291ZM52.0978 53.4204L49.5573 52.3677L48.7526 54.3098L50.4155 55.5958L52.0978 53.4204ZM39.6494 55.4364L41.3296 57.6134L44.195 55.4018L41.2963 53.2341L39.6494 55.4364ZM30.0024 48.2219L31.6493 46.0196L31.608 45.9887L31.5655 45.9593L30.0024 48.2219ZM29.5556 47.9132L31.1186 45.6506L29.0801 44.2424L27.4677 46.1235L29.5556 47.9132ZM30.3887 56.7393L28.9212 59.065L28.9469 59.0812L28.9729 59.0969L30.3887 56.7393ZM56.9873 56.4799L49.9466 62.4517L53.5042 66.6461L60.5449 60.6743L56.9873 56.4799ZM53.3749 62.3485L48.7004 58.8442L45.4013 63.2449L50.0759 66.7492L53.3749 62.3485ZM45.0993 59.1071C42.6257 61.5986 39.5575 63.1975 35.7943 63.8856L36.7835 69.2959C41.5824 68.4184 45.6888 66.3198 49.0024 62.982L45.0993 59.1071ZM35.7943 63.8856C31.6591 64.6417 28.3326 64.1524 25.6252 62.6643L22.9761 67.4843C27.0194 69.7065 31.6851 70.2281 36.7835 69.2959L35.7943 63.8856ZM25.6252 62.6643C23.0342 61.2403 21.4344 59.0172 20.8261 55.6902L15.4158 56.6795C16.2962 61.4949 18.8162 65.198 22.9761 67.4843L25.6252 62.6643ZM20.8261 55.6902C20.4401 53.5793 20.581 51.5432 21.2449 49.5386L16.0237 47.8095C15.0668 50.6989 14.8655 53.6701 15.4158 56.6795L20.8261 55.6902ZM21.2321 49.5761C21.9328 47.5584 23.0869 45.7905 24.7352 44.2512L20.9812 40.2316C18.7024 42.3597 17.0406 44.8803 16.0365 47.772L21.2321 49.5761ZM24.95 40.4563C23.6813 38.9695 22.8458 37.2034 22.4598 35.0924L17.0495 36.0817C17.5998 39.0912 18.8333 41.7613 20.7663 44.0265L24.95 40.4563ZM22.4598 35.0924C21.9062 32.0651 22.4952 29.5226 24.175 27.2564L19.7564 23.9812C17.1221 27.5353 16.237 31.6383 17.0495 36.0817L22.4598 35.0924ZM24.1618 27.274C25.8768 24.9985 28.4149 23.4616 32.0545 22.7961L31.0653 17.3858C26.3108 18.2552 22.4527 20.4036 19.7696 23.9637L24.1618 27.274ZM32.0545 22.7961C34.8539 22.2842 37.3547 22.5423 39.6373 23.4953L41.7564 18.4199C38.4038 17.0202 34.8133 16.7005 31.0653 17.3858L32.0545 22.7961ZM39.6373 23.4953C41.8832 24.4331 43.8461 26.0797 45.5071 28.5921L50.0951 25.559C47.9188 22.2669 45.1455 19.835 41.7563 18.4199L39.6373 23.4953ZM46.0213 24.9792L38.3057 31.5298L41.8654 35.7226L49.5809 29.1719L46.0213 24.9792ZM42.4366 32.1997C41.379 30.4567 40.073 28.9981 38.4386 28.0732C36.7499 27.1175 34.8904 26.8359 32.987 27.1839L33.9763 32.5942C34.6751 32.4665 35.2173 32.5698 35.7299 32.8599C36.2967 33.1807 36.9916 33.8284 37.7345 35.0527L42.4366 32.1997ZM32.987 27.1839C31.1868 27.5131 29.5735 28.3512 28.4201 29.8373L32.7649 33.2096C32.9454 32.977 33.2582 32.7255 33.9763 32.5942L32.987 27.1839ZM28.4256 29.8302C27.2675 31.3122 26.9094 33.0747 27.2376 34.8694L32.6479 33.8801C32.577 33.4924 32.6521 33.354 32.7594 33.2167L28.4256 29.8302ZM27.2376 34.8694C27.4506 36.0341 27.9178 37.1192 28.5711 38.1177L33.1735 35.1064C32.8637 34.6328 32.7112 34.2264 32.6479 33.8801L27.2376 34.8694ZM28.674 38.2643C29.2661 39.0521 29.8921 39.76 30.5589 40.3264L34.1198 36.1348C33.8623 35.916 33.5103 35.5448 33.0707 34.9599L28.674 38.2643ZM30.5589 40.3264C31.0786 40.7679 31.8614 41.3852 32.8761 42.16L36.2139 37.7886C35.212 37.0236 34.5244 36.4785 34.1198 36.1348L30.5589 40.3264ZM32.8677 42.1536L42.6352 49.6713L45.9898 45.3128L36.2223 37.7951L32.8677 42.1536ZM46.9891 48.1231C47.5571 45.7144 47.8441 43.0727 47.8736 40.2154L42.3739 40.1586C42.3478 42.6898 42.094 44.9182 41.6359 46.8609L46.9891 48.1231ZM44.2195 42.784L53.5305 46.0262L55.3391 40.832L46.0281 37.5899L44.2195 42.784ZM51.6939 43.2059C51.4208 46.5586 50.7016 49.606 49.5573 52.3677L54.6384 54.4731C56.0219 51.1339 56.8607 47.5205 57.1757 43.6523L51.6939 43.2059ZM50.4155 55.5958L57.0838 60.7525L60.4484 56.4017L53.7801 51.245L50.4155 55.5958ZM35.9213 59.9546C37.9382 59.5858 39.7647 58.8212 41.3296 57.6134L37.9691 53.2594C37.1775 53.8704 36.1888 54.3145 34.932 54.5443L35.9213 59.9546ZM41.2963 53.2341L31.6493 46.0196L28.3554 50.4242L38.0024 57.6386L41.2963 53.2341ZM31.5655 45.9593L31.1186 45.6506L27.9925 50.1758L28.4393 50.4845L31.5655 45.9593ZM27.4677 46.1235C25.6006 48.3017 24.9028 50.9215 25.419 53.7444L30.8293 52.7551C30.6087 51.5488 30.8652 50.6109 31.6435 49.7029L27.4677 46.1235ZM25.419 53.7444C25.8275 55.9785 26.9829 57.842 28.9212 59.065L31.8562 54.4136C31.343 54.0897 30.9886 53.6268 30.8293 52.7551L25.419 53.7444ZM28.9729 59.0969C31.0019 60.3153 33.4592 60.4048 35.9213 59.9546L34.932 54.5443C33.113 54.8769 32.2117 54.6263 31.8045 54.3818L28.9729 59.0969Z" fill="#212121"/>
    <path d="M56.5172 56.6137L49.6965 62.3989L45.168 59.0041C42.3649 61.8277 38.8897 63.6186 34.7424 64.377C30.2699 65.1948 26.3987 64.7051 23.1288 62.9079C19.8589 61.1108 17.8633 58.2402 17.1422 54.2963C16.6887 51.8161 16.8544 49.3907 17.6395 47.0202C18.4653 44.6422 19.8292 42.565 21.7314 40.7885C20.1805 38.9712 19.1784 36.8224 18.7248 34.3422C18.0632 30.7235 18.7772 27.5046 20.8668 24.6854C22.9971 21.8588 26.0953 20.0737 30.1612 19.3303C33.3326 18.7504 36.2831 19.0303 39.0126 20.1699C41.7421 21.3095 44.0362 23.2851 45.8949 26.0966L38.4204 32.4426C36.6762 29.5681 34.5437 28.3613 32.0229 28.8222C30.8031 29.0453 29.8701 29.573 29.224 30.4055C28.6111 31.1899 28.4013 32.1106 28.5946 33.1678C28.7284 33.8996 29.0286 34.6221 29.4951 35.3351C29.9949 36.0001 30.4686 36.5227 30.9163 36.9031C31.364 37.2834 32.0763 37.8465 33.053 38.5923L42.5153 45.8751C43.0123 43.7673 43.2742 41.4084 43.3012 38.7983L52.3212 41.9391C52.0364 45.4367 51.2817 48.6631 50.0573 51.6182L56.5172 56.6137ZM33.9071 55.3276C35.4928 55.0377 36.8564 54.4522 37.9979 53.5712L28.6524 46.5821L28.2195 46.2831C26.9382 47.778 26.4759 49.5012 26.8328 51.4529C27.1079 52.9573 27.8391 54.0841 29.0266 54.8334C30.2066 55.542 31.8335 55.7068 33.9071 55.3276Z" fill="#FF8AE0"/>
    <path d="M56.5172 56.6137L57.7462 58.0627L59.5349 56.5455L57.6795 55.1107L56.5172 56.6137ZM49.6965 62.3989L48.5569 63.9192L49.7696 64.8283L50.9255 63.8479L49.6965 62.3989ZM45.168 59.0041L46.3077 57.4838L44.9847 56.492L43.8197 57.6655L45.168 59.0041ZM23.1288 62.9079L24.0439 61.2428L23.1288 62.9079ZM17.6395 47.0202L15.8447 46.3969L15.8402 46.4098L15.8359 46.4228L17.6395 47.0202ZM21.7314 40.7885L23.0282 42.1771L24.356 40.9371L23.1767 39.5552L21.7314 40.7885ZM20.8668 24.6854L19.3495 23.5418L19.3449 23.5479L19.3404 23.554L20.8668 24.6854ZM39.0126 20.1699L38.2805 21.9232L39.0126 20.1699ZM45.8949 26.0966L47.1246 27.545L48.4091 26.4545L47.4798 25.0488L45.8949 26.0966ZM38.4204 32.4426L36.796 33.4282L37.9517 35.3329L39.6501 33.891L38.4204 32.4426ZM29.224 30.4055L30.7211 31.5754L30.7249 31.5705L29.224 30.4055ZM29.4951 35.3351L27.9052 36.3754L27.9391 36.4272L27.9762 36.4766L29.4951 35.3351ZM33.053 38.5923L34.2119 37.0866L34.2061 37.0822L33.053 38.5923ZM42.5153 45.8751L41.3564 47.3808L43.689 49.1761L44.3646 46.3111L42.5153 45.8751ZM43.3012 38.7983L43.926 37.004L41.4286 36.1344L41.4013 38.7787L43.3012 38.7983ZM52.3212 41.9391L54.215 42.0933L54.3343 40.6282L52.946 40.1448L52.3212 41.9391ZM50.0573 51.6182L48.302 50.8909L47.746 52.2327L48.895 53.1212L50.0573 51.6182ZM37.9979 53.5712L39.1588 55.0753L41.1385 53.5473L39.1358 52.0496L37.9979 53.5712ZM28.6524 46.5821L29.7903 45.0606L29.7617 45.0392L29.7323 45.0189L28.6524 46.5821ZM28.2195 46.2831L29.2994 44.7199L27.891 43.7469L26.7769 45.0466L28.2195 46.2831ZM29.0266 54.8334L28.0127 56.4402L28.0304 56.4515L28.0484 56.4623L29.0266 54.8334ZM55.2882 55.1647L48.4675 60.9499L50.9255 63.8479L57.7462 58.0627L55.2882 55.1647ZM50.8362 60.8787L46.3077 57.4838L44.0284 60.5243L48.5569 63.9192L50.8362 60.8787ZM43.8197 57.6655C41.3067 60.1967 38.1901 61.815 34.4007 62.5079L35.0842 66.246C39.5892 65.4222 43.423 63.4586 46.5164 60.3427L43.8197 57.6655ZM34.4007 62.5079C30.2609 63.2649 26.8524 62.7864 24.0439 61.2428L22.2136 64.573C25.945 66.6238 30.2789 67.1246 35.0842 66.246L34.4007 62.5079ZM24.0439 61.2428C21.316 59.7436 19.6383 57.3843 19.0112 53.9545L15.2732 54.638C16.0883 59.0961 18.4017 62.478 22.2136 64.573L24.0439 61.2428ZM19.0112 53.9545C18.6144 51.7847 18.7593 49.6824 19.4432 47.6175L15.8359 46.4228C14.9496 49.099 14.7629 51.8474 15.2732 54.638L19.0112 53.9545ZM19.4344 47.6434C20.1553 45.5673 21.3439 43.7502 23.0282 42.1771L20.4346 39.3999C18.3146 41.3798 16.7752 43.717 15.8447 46.3969L19.4344 47.6434ZM23.1767 39.5552C21.8553 38.0068 20.9906 36.1702 20.5939 34.0004L16.8558 34.6839C17.3661 37.4745 18.5058 39.9356 20.2861 42.0219L23.1767 39.5552ZM20.5939 34.0004C20.0216 30.8709 20.6333 28.1911 22.3932 25.8168L19.3404 23.554C16.921 26.8181 16.1047 30.5761 16.8558 34.6839L20.5939 34.0004ZM22.3842 25.829C24.18 23.4461 26.8221 21.8723 30.5029 21.1993L29.8194 17.4613C25.3684 18.2752 21.8143 20.2715 19.3495 23.5418L22.3842 25.829ZM30.5029 21.1993C33.3467 20.6793 35.9207 20.9379 38.2805 21.9232L39.7446 18.4166C36.6455 17.1226 33.3186 16.8215 29.8194 17.4613L30.5029 21.1993ZM38.2805 21.9232C40.6151 22.8979 42.6293 24.6022 44.3099 27.1444L47.4798 25.0488C45.4431 21.968 42.8691 19.7211 39.7446 18.4166L38.2805 21.9232ZM44.6652 24.6482L37.1907 30.9942L39.6501 33.891L47.1246 27.545L44.6652 24.6482ZM40.0448 31.457C39.064 29.8405 37.8837 28.5401 36.4487 27.728C34.9761 26.8947 33.3577 26.6467 31.6811 26.9532L32.3646 30.6912C33.2089 30.5369 33.9172 30.6617 34.5771 31.0352C35.2746 31.4299 36.0327 32.1701 36.796 33.4282L40.0448 31.457ZM31.6811 26.9532C30.0875 27.2446 28.7053 27.975 27.7231 29.2405L30.7249 31.5705C31.035 31.171 31.5186 30.8459 32.3646 30.6912L31.6811 26.9532ZM27.7269 29.2356C26.751 30.4845 26.4434 31.9663 26.7256 33.5095L30.4636 32.826C30.3592 32.2549 30.4712 31.8952 30.7211 31.5754L27.7269 29.2356ZM26.7256 33.5095C26.9111 34.5241 27.32 35.481 27.9052 36.3754L31.085 34.2949C30.7371 33.7632 30.5457 33.2752 30.4636 32.826L26.7256 33.5095ZM27.9762 36.4766C28.5287 37.2117 29.0971 37.8506 29.6862 38.3511L32.1464 35.455C31.8401 35.1948 31.4611 34.7885 31.014 34.1936L27.9762 36.4766ZM29.6862 38.3511C30.1737 38.7652 30.9188 39.3532 31.8999 40.1024L34.2061 37.0822C33.2337 36.3397 32.5544 35.8016 32.1464 35.455L29.6862 38.3511ZM31.8941 40.098L41.3564 47.3808L43.6741 44.3694L34.2119 37.0866L31.8941 40.098ZM44.3646 46.3111C44.8995 44.0424 45.173 41.5407 45.2011 38.8179L41.4013 38.7787C41.3755 41.2761 41.125 43.4923 40.666 45.4391L44.3646 46.3111ZM42.6764 40.5926L51.6965 43.7334L52.946 40.1448L43.926 37.004L42.6764 40.5926ZM50.4275 41.7849C50.1572 45.1044 49.4438 48.1353 48.302 50.8909L51.8126 52.3455C53.1197 49.1909 53.9156 45.769 54.215 42.0933L50.4275 41.7849ZM48.895 53.1212L55.3549 58.1167L57.6795 55.1107L51.2196 50.1152L48.895 53.1212ZM34.2488 57.1966C36.0972 56.8587 37.7501 56.1625 39.1588 55.0753L36.837 52.0671C35.9627 52.7419 34.8884 53.2167 33.5653 53.4586L34.2488 57.1966ZM39.1358 52.0496L29.7903 45.0606L27.5145 48.1037L36.86 55.0927L39.1358 52.0496ZM29.7323 45.0189L29.2994 44.7199L27.1396 47.8464L27.5724 48.1454L29.7323 45.0189ZM26.7769 45.0466C25.1195 46.9802 24.5048 49.2845 24.9638 51.7946L28.7018 51.1111C28.447 49.7179 28.7568 48.5757 29.6621 47.5196L26.7769 45.0466ZM24.9638 51.7946C25.3249 53.7697 26.3329 55.3803 28.0127 56.4402L30.0405 53.2265C29.3453 52.7879 28.8908 52.1448 28.7018 51.1111L24.9638 51.7946ZM28.0484 56.4623C29.7887 57.5073 31.9531 57.6164 34.2488 57.1966L33.5653 53.4586C31.7139 53.7971 30.6246 53.5767 30.0048 53.2045L28.0484 56.4623Z" fill="white"/>
</svg>
