<svg width="238" height="85" viewBox="0 0 238 85" fill="none" xmlns="http://www.w3.org/2000/svg">
    <rect x="2" y="11.1333" width="231.43" height="72" rx="12" transform="rotate(-2.26175 2 11.1333)" fill="#B6FFB9"/>
    <path d="M47.8407 34.7447C50.9969 34.62 53.7395 35.6779 56.0684 37.9184C58.3973 40.1589 59.6289 42.9798 59.7632 46.3812C59.8964 49.7519 58.8911 52.6612 56.7473 55.109C54.6024 57.5262 51.9518 58.7971 48.7956 58.9218C45.3023 59.0598 42.5696 57.8634 40.5976 55.3325L40.7283 58.642L35.7641 58.838L34.4934 26.6631L39.4575 26.467L39.9495 38.9233C41.717 36.2755 44.3474 34.8826 47.8407 34.7447ZM42.5516 52.3551C43.985 53.6796 45.7435 54.3007 47.8272 54.2184C49.9109 54.1361 51.615 53.3782 52.9395 51.9448C54.2627 50.4808 54.8826 48.6916 54.7991 46.5773C54.7156 44.4629 53.9572 42.7435 52.5238 41.419C51.0892 40.0639 49.33 39.4275 47.2463 39.5098C45.1626 39.5921 43.4591 40.3653 42.1359 41.8293C40.8114 43.2627 40.1909 45.0366 40.2744 47.1509C40.3579 49.2653 41.117 51 42.5516 52.3551ZM79.7581 34.0825L84.7222 33.8865L85.6299 56.8685L80.6657 57.0646L80.5496 54.1229C79.1413 56.5417 76.813 57.8152 73.5649 57.9435C70.9296 58.0476 68.7667 57.289 67.076 55.6678C65.3854 54.0466 64.482 51.7652 64.3658 48.8235L63.8085 34.7125L68.7726 34.5164L69.31 48.1218C69.3777 49.8378 69.8894 51.1373 70.845 52.0203C71.8006 52.9032 73.0751 53.3132 74.6685 53.2503C76.4152 53.1813 77.8036 52.5894 78.8337 51.4746C79.8626 50.3291 80.3329 48.6378 80.2446 46.4009L79.7581 34.0825ZM91.8943 56.6211L90.5691 23.0673L95.5332 22.8712L96.8584 56.4251L91.8943 56.6211ZM103.082 56.1793L101.757 22.6254L106.721 22.4294L108.046 55.9832L103.082 56.1793ZM135.8 46.0482C135.903 48.6528 135.144 50.8158 133.524 52.537C131.934 54.2265 129.797 55.293 127.113 55.7365L127.275 59.8273L124.287 59.9453L124.128 55.9005C121.578 55.8477 119.375 55.2442 117.519 54.0899C115.663 52.9356 114.294 51.317 113.414 49.2341L117.861 46.4344C119.04 49.0886 121.061 50.5127 123.922 50.7065L123.545 41.146C122.145 40.6795 121.009 40.2641 120.135 39.8996C119.26 39.5045 118.318 38.9586 117.308 38.2619C116.329 37.564 115.574 36.7038 115.043 35.6813C114.541 34.6269 114.262 33.395 114.206 31.9854C114.104 29.4114 114.88 27.2938 116.533 25.6326C118.186 23.9714 120.28 22.968 122.813 22.6224L122.654 18.5776L125.641 18.4596L125.803 22.5504C129.931 22.9398 132.863 24.9263 134.601 28.5098L130.244 31.2599C129.369 29.2996 127.957 28.1431 126.01 27.7903L126.369 36.8912C127.364 37.2202 128.111 37.4823 128.61 37.6774C129.139 37.8713 129.826 38.1664 130.67 38.5628C131.545 38.9579 132.221 39.3609 132.698 39.7717C133.174 40.1825 133.67 40.6847 134.184 41.2782C134.73 41.8705 135.126 42.5761 135.373 43.395C135.619 44.1832 135.761 45.0676 135.8 46.0482ZM119.492 31.7766C119.529 32.7266 119.836 33.4971 120.412 34.0881C121.018 34.678 121.992 35.2533 123.334 35.8141L123.018 27.8164C121.892 28.045 121.005 28.5097 120.357 29.2105C119.74 29.91 119.452 30.7654 119.492 31.7766ZM126.908 50.5426C128.124 50.249 129.04 49.7218 129.654 48.961C130.269 48.2001 130.556 47.3141 130.516 46.3029C130.476 45.2917 130.137 44.4918 129.5 43.9031C128.862 43.2838 127.888 42.7085 126.578 42.1771L126.908 50.5426ZM164.418 35.3424L159.27 35.5458L158.716 40.1712L163.864 39.9679L163.421 43.8984L158.227 44.1036L157.239 51.7385L153.148 51.9001L154.136 44.2652L148.988 44.4685L148 52.1034L143.91 52.265L144.897 44.63L139.657 44.837L140.146 40.9046L145.386 40.6977L145.94 36.0722L140.7 36.2792L141.189 32.3468L146.475 32.138L147.417 24.5049L151.508 24.3434L150.566 31.9765L155.714 31.7731L156.656 24.14L160.746 23.9785L159.805 31.6116L164.907 31.4101L164.418 35.3424ZM154.625 40.3328L155.179 35.7073L150.031 35.9106L149.477 40.5361L154.625 40.3328ZM171.839 43.3358L170.32 30.5057L169.957 21.3129L175.932 21.0769L176.295 30.2697L175.746 43.1815L171.839 43.3358ZM176.633 52.814C175.985 53.5147 175.187 53.8839 174.237 53.9214C173.287 53.9589 172.462 53.6539 171.761 53.0064C171.06 52.3589 170.691 51.5602 170.653 50.6102C170.616 49.6603 170.906 48.8356 171.522 48.136C172.17 47.4352 172.984 47.0655 173.965 47.0268C174.914 46.9893 175.74 47.2943 176.441 47.9418C177.141 48.5893 177.51 49.388 177.548 50.3379C177.586 51.2879 177.281 52.1132 176.633 52.814ZM194.588 20.3401L203.718 34.7109L198.294 34.9252L192.789 26.0735L188.044 35.33L182.575 35.546L190.543 20.4998L194.588 20.3401Z" fill="#212121"/>
    <rect x="2" y="11.1333" width="231.43" height="72" rx="12" transform="rotate(-2.26175 2 11.1333)" stroke="#212121" stroke-width="3"/>
</svg>
