<svg width="207" height="28" viewBox="0 0 207 28" fill="none" xmlns="http://www.w3.org/2000/svg">
    <path d="M5.904 27V16.474H18.178V11.724H5.904V6.404H18.444V1.654H0.508V27H5.904ZM30.615 27.456C36.695 27.456 40.343 23.01 40.343 17.804C40.343 12.598 36.695 8.19 30.615 8.19C24.573 8.19 20.925 12.598 20.925 17.804C20.925 23.01 24.573 27.456 30.615 27.456ZM30.615 23.162C27.613 23.162 25.941 20.692 25.941 17.804C25.941 14.954 27.613 12.484 30.615 12.484C33.655 12.484 35.327 14.954 35.327 17.804C35.327 20.692 33.655 23.162 30.615 23.162ZM61.1744 27V8.646H56.3484V21.072C55.5124 22.136 54.0304 23.162 52.1684 23.162C50.1164 23.162 48.7864 22.326 48.7864 19.78V8.646H43.9604V21.68C43.9604 25.252 45.8604 27.456 49.8884 27.456C52.8904 27.456 55.0944 26.05 56.3484 24.682V27H61.1744ZM83.2183 27V14.042C83.2183 10.47 81.2803 8.19 77.2143 8.19C74.2503 8.19 71.9703 9.634 70.7923 11.002V8.646H65.9663V27H70.7923V14.612C71.6283 13.548 73.0723 12.484 74.9723 12.484C77.0243 12.484 78.3543 13.358 78.3543 15.904V27H83.2183ZM105.452 27V1.654H100.588V11.002C99.1441 9.102 97.0921 8.19 94.9261 8.19C90.2521 8.19 86.7941 11.838 86.7941 17.804C86.7941 23.96 90.3281 27.456 94.9261 27.456C97.1681 27.456 99.1441 26.468 100.588 24.644V27H105.452ZM96.4461 23.162C93.6721 23.162 91.7721 20.996 91.7721 17.804C91.7721 14.65 93.6721 12.484 96.4461 12.484C98.0421 12.484 99.7901 13.358 100.588 14.574V21.072C99.7901 22.288 98.0421 23.162 96.4461 23.162ZM118.864 27.456C121.714 27.456 124.602 26.582 126.426 24.91L124.26 21.718C123.082 22.858 120.954 23.504 119.396 23.504C116.28 23.504 114.456 21.642 114.114 19.4H127.756V18.26C127.756 12.294 124.07 8.19 118.56 8.19C113.012 8.19 109.06 12.484 109.06 17.804C109.06 23.694 113.278 27.456 118.864 27.456ZM123.12 16.056H114.076C114.266 14.232 115.558 12.142 118.56 12.142C121.752 12.142 122.968 14.308 123.12 16.056ZM136.068 27V14.878C136.866 13.7 138.994 12.788 140.59 12.788C141.16 12.788 141.578 12.826 141.92 12.902V8.19C139.64 8.19 137.398 9.52 136.068 11.116V8.646H131.242V27H136.068ZM151.547 27.456C156.639 27.456 159.527 24.986 159.527 21.604C159.527 14.194 148.621 16.474 148.621 13.776C148.621 12.75 149.761 11.99 151.509 11.99C153.751 11.99 155.841 12.978 156.943 14.118L158.881 10.698C157.057 9.254 154.587 8.19 151.509 8.19C146.645 8.19 143.985 10.888 143.985 13.966C143.985 21.186 154.853 18.716 154.853 21.718C154.853 22.858 153.865 23.656 151.775 23.656C149.495 23.656 146.797 22.402 145.429 21.11L143.339 24.606C145.277 26.392 148.355 27.456 151.547 27.456ZM184.856 27L174.102 13.548L184.172 1.654H177.522L168.554 12.94V1.654H163.158V27H168.554V19.21L170.53 16.816L178.206 27H184.856ZM189.597 6.67C191.193 6.67 192.485 5.378 192.485 3.782C192.485 2.186 191.193 0.931998 189.597 0.931998C188.039 0.931998 186.747 2.186 186.747 3.782C186.747 5.378 188.039 6.67 189.597 6.67ZM192.029 27V8.646H187.203V27H192.029ZM202.97 27.456C204.984 27.456 206.276 26.924 206.998 26.278L205.972 22.592C205.706 22.896 205.022 23.162 204.3 23.162C203.236 23.162 202.628 22.288 202.628 21.11V12.864H206.352V8.646H202.628V3.63H197.802V8.646H194.762V12.864H197.802V22.402C197.802 25.708 199.588 27.456 202.97 27.456Z" fill="white"/>
</svg>
