<svg width="188" height="107" viewBox="0 0 188 107" fill="none" xmlns="http://www.w3.org/2000/svg">
    <rect x="3.11499" y="2" width="183.041" height="47.0148" rx="12" transform="rotate(2.32061 3.11499 2)" fill="#FFF78A"/>
    <path d="M28.68 21.7988C29.8124 21.8446 30.7102 22.248 31.3732 23.0088C32.0363 23.7696 32.3427 24.7695 32.2925 26.0085L32.0415 32.2034L29.8833 32.1159L30.1286 26.0609C30.1567 25.3681 30.0051 24.8282 29.6738 24.4412C29.3431 24.0408 28.878 23.8284 28.2785 23.8041C27.6124 23.7772 27.0706 23.9754 26.6531 24.3988C26.2489 24.8228 26.029 25.4744 25.9934 26.3537L25.7666 31.9491L23.6084 31.8617L23.8538 25.8066C23.8819 25.1139 23.7369 24.5742 23.419 24.1877C23.1149 23.7884 22.6631 23.5766 22.0636 23.5523C21.4108 23.5258 20.8687 23.7307 20.4374 24.1669C20.0066 24.5898 19.7736 25.2343 19.7385 26.1002L19.5118 31.6956L17.3535 31.6082L17.7585 21.6164L19.9167 21.7038L19.8681 22.9029C20.547 21.9562 21.5192 21.5086 22.7849 21.5599C24.0638 21.6117 24.9884 22.1763 25.5586 23.2536C26.2673 22.2281 27.3078 21.7432 28.68 21.7988ZM37.0713 20.4975C36.7941 20.7531 36.4689 20.8734 36.0959 20.8583C35.7229 20.8431 35.4019 20.6967 35.1329 20.4189C34.8778 20.1283 34.7578 19.7965 34.7729 19.4235C34.788 19.0505 34.9342 18.7362 35.2115 18.4805C35.4892 18.2115 35.8213 18.0849 36.2077 18.1005C36.594 18.1162 36.9147 18.2693 37.1699 18.5599C37.4255 18.8371 37.5458 19.1622 37.5307 19.5353C37.5155 19.9083 37.3624 20.229 37.0713 20.4975ZM34.5511 32.3051L34.9561 22.3133L37.1143 22.4008L36.7094 32.3926L34.5511 32.3051ZM45.0862 22.4636C46.232 22.51 47.143 22.9139 47.8194 23.6753C48.4958 24.4366 48.8081 25.4568 48.7563 26.7357L48.5077 32.8707L46.3494 32.7832L46.5891 26.8681C46.6194 26.122 46.4427 25.5411 46.0593 25.1252C45.6758 24.7093 45.1377 24.4874 44.4449 24.4593C43.6855 24.4285 43.063 24.6435 42.5773 25.1042C42.0921 25.5516 41.8298 26.2615 41.7904 27.2341L41.5733 32.5897L39.4151 32.5022L39.82 22.5104L41.9783 22.5979L41.9264 23.8768C42.6208 22.8775 43.6741 22.4064 45.0862 22.4636ZM59.5117 19.3051L61.67 19.3926L61.1031 33.3811L58.9449 33.2936L59.0032 31.8548C58.1446 32.9543 56.956 33.4733 55.4372 33.4117C54.065 33.3561 52.9132 32.8023 51.9816 31.7504C51.0507 30.6852 50.6149 29.4198 50.6743 27.9544C50.7342 26.4756 51.271 25.2497 52.2845 24.2766C53.2981 23.3035 54.491 22.8447 55.8632 22.9003C57.3819 22.9619 58.525 23.5687 59.2923 24.7207L59.5117 19.3051ZM53.6386 30.3764C54.2139 31.0002 54.9544 31.3305 55.8603 31.3672C56.7663 31.4039 57.5311 31.1346 58.1549 30.5594C58.7793 29.9709 59.1101 29.217 59.1473 28.2977C59.1846 27.3785 58.9156 26.607 58.3404 25.9832C57.7657 25.346 57.0254 25.0091 56.1195 24.9724C55.2136 24.9357 54.4484 25.2116 53.8241 25.8002C53.2003 26.3754 52.8698 27.1226 52.8325 28.0418C52.7953 28.9611 53.064 29.7393 53.6386 30.3764ZM64.1625 28.4609L64.2467 26.3827L71.6406 26.6823L71.5564 28.7606L64.1625 28.4609ZM79.8764 23.8735C81.0222 23.9199 81.9332 24.3238 82.6096 25.0851C83.286 25.8465 83.5983 26.8666 83.5465 28.1456L83.2979 34.2805L81.1396 34.1931L81.3793 28.2779C81.4096 27.5319 81.2329 26.9509 80.8495 26.535C80.466 26.1192 79.9279 25.8972 79.2351 25.8691C78.4757 25.8384 77.8532 26.0533 77.3675 26.514C76.8823 26.9614 76.62 27.6714 76.5806 28.6439L76.3635 33.9995L74.2053 33.9121L74.6102 23.9203L76.7685 24.0077L76.7166 25.2867C77.411 24.2873 78.4643 23.8162 79.8764 23.8735ZM92.9609 24.6639L95.1192 24.7514L94.7143 34.7432L92.556 34.6557L92.6079 33.3768C91.9135 34.3761 90.8602 34.8472 89.448 34.79C88.3023 34.7436 87.3913 34.3397 86.7149 33.5783C86.0385 32.817 85.7262 31.7968 85.778 30.5179L86.0266 24.3829L88.1849 24.4704L87.9452 30.3855C87.9149 31.1316 88.0915 31.7125 88.475 32.1284C88.8585 32.5443 89.3966 32.7662 90.0894 32.7943C90.8488 32.8251 91.471 32.6168 91.9562 32.1694C92.4419 31.7087 92.7045 30.9921 92.7439 30.0195L92.9609 24.6639ZM108.764 25.0441C109.897 25.09 110.794 25.4934 111.458 26.2542C112.121 27.015 112.427 28.0149 112.377 29.2539L112.126 35.4488L109.968 35.3613L110.213 29.3063C110.241 28.6135 110.089 28.0736 109.758 27.6865C109.427 27.2861 108.962 27.0738 108.363 27.0495C107.697 27.0225 107.155 27.2207 106.737 27.6442C106.333 28.0682 106.113 28.7198 106.078 29.5991L105.851 35.1945L103.693 35.107L103.938 29.052C103.966 28.3592 103.821 27.8196 103.503 27.4331C103.199 27.0338 102.747 26.822 102.148 26.7977C101.495 26.7712 100.953 26.9761 100.522 27.4123C100.091 27.8352 99.8579 28.4796 99.8228 29.3456L99.596 34.941L97.4378 34.8535L97.8427 24.8617L100.001 24.9492L99.9524 26.1482C100.631 25.2016 101.604 24.7539 102.869 24.8052C104.148 24.8571 105.073 25.4216 105.643 26.4989C106.352 25.4735 107.392 24.9885 108.764 25.0441ZM120.706 25.5281C122.078 25.5837 123.23 26.1374 124.162 27.1893C125.093 28.2413 125.529 29.5066 125.469 30.9854C125.41 32.4509 124.873 33.6768 123.859 34.6632C122.845 35.6363 121.652 36.095 120.28 36.0394C118.761 35.9779 117.619 35.3645 116.852 34.1991L116.794 35.6379L114.635 35.5505L115.202 21.562L117.361 21.6494L117.141 27.065C117.999 25.9788 119.187 25.4665 120.706 25.5281ZM117.802 32.9766C118.377 33.6004 119.118 33.9306 120.024 33.9674C120.93 34.0041 121.695 33.7348 122.319 33.1596C122.943 32.5711 123.274 31.8172 123.311 30.8979C123.348 29.9787 123.079 29.2072 122.504 28.5834C121.929 27.9462 121.189 27.6093 120.283 27.5726C119.377 27.5359 118.612 27.8118 117.988 28.4003C117.364 28.9756 117.033 29.7228 116.996 30.642C116.959 31.5613 117.228 32.3395 117.802 32.9766ZM129.943 24.261C129.666 24.5167 129.34 24.6369 128.967 24.6218C128.594 24.6067 128.273 24.4603 128.004 24.1825C127.749 23.8919 127.629 23.5601 127.644 23.1871C127.659 22.8141 127.806 22.4997 128.083 22.2441C128.361 21.9751 128.693 21.8484 129.079 21.8641C129.465 21.8797 129.786 22.0329 130.041 22.3234C130.297 22.6007 130.417 22.9258 130.402 23.2988C130.387 23.6719 130.234 23.9926 129.943 24.261ZM127.423 36.0687L127.827 26.0769L129.986 26.1643L129.581 36.1561L127.423 36.0687ZM137.958 26.2272C139.103 26.2736 140.014 26.6775 140.691 27.4388C141.367 28.2002 141.68 29.2203 141.628 30.4993L141.379 36.6342L139.221 36.5468L139.461 30.6316C139.491 29.8856 139.314 29.3046 138.931 28.8888C138.547 28.4729 138.009 28.2509 137.316 28.2228C136.557 28.1921 135.934 28.407 135.449 28.8677C134.964 29.3151 134.701 30.0251 134.662 30.9976L134.445 36.3532L132.287 36.2658L132.691 26.274L134.85 26.3614L134.798 27.6404C135.492 26.641 136.546 26.1699 137.958 26.2272ZM152.261 27.067L154.379 27.1529L153.993 36.685C153.932 38.2038 153.385 39.3493 152.353 40.1214C151.321 40.8936 150.092 41.2508 148.666 41.193C146.361 41.0996 144.815 40.2297 144.028 38.5831L145.93 37.5793C146.408 38.6262 147.36 39.1785 148.786 39.2363C149.718 39.2741 150.454 39.057 150.994 38.5852C151.546 38.1271 151.84 37.4652 151.875 36.5992L151.924 35.3802C151.065 36.5063 149.882 37.0389 148.377 36.9779C146.965 36.9206 145.792 36.3727 144.86 35.3341C143.929 34.2822 143.492 33.0435 143.55 31.618C143.608 30.1925 144.143 28.9999 145.156 28.0401C146.17 27.067 147.382 26.6091 148.795 26.6663C150.3 26.7273 151.436 27.3538 152.201 28.5458L152.261 27.067ZM146.517 33.9801C147.105 34.6044 147.852 34.935 148.758 34.9717C149.664 35.0084 150.429 34.7391 151.053 34.1639C151.69 33.5892 152.027 32.8556 152.063 31.963C152.099 31.0704 151.823 30.3119 151.234 29.6876C150.659 29.0638 149.918 28.7335 149.013 28.6968C148.107 28.6601 147.335 28.9291 146.698 29.5038C146.074 30.079 145.744 30.8129 145.708 31.7055C145.672 32.5981 145.941 33.3563 146.517 33.9801ZM156.69 37.2547L157.281 22.6667L159.439 22.7541L158.848 37.3422L156.69 37.2547ZM168.693 27.7329L170.991 27.8261L166.737 37.9821C165.673 40.5278 163.998 41.6876 161.712 41.4615L161.794 39.4432C162.471 39.5107 163.023 39.3862 163.45 39.0699C163.876 38.7669 164.236 38.2744 164.531 37.5925L164.639 37.3967L160.8 27.413L163.158 27.5086L165.841 34.8833L168.693 27.7329Z" fill="#212121"/>
    <rect x="3.11499" y="2" width="183.041" height="47.0148" rx="12" transform="rotate(2.32061 3.11499 2)" stroke="#212121" stroke-width="3"/>
    <path d="M127.741 104.264C116.774 103.93 108.4 103.357 102.838 92.1688C100.184 86.8284 100.79 80.7002 104.894 75.8517C112.364 67.0287 117.643 84.5975 109.613 87.7201C94.8933 93.4445 88.4466 72.7981 89.8976 59.9335C90.3205 56.1845 90.8628 51.924 91.6359 48.2557C92.3065 45.0737 90.623 48.6223 89.9821 49.6791C88.7949 51.6368 87.2813 53.061 86.1208 54.9747C84.0901 58.3234 86.3 55.3458 87.1578 53.7619C89.6185 49.2185 90.8665 44.728 93.9417 50.5191C94.5605 51.6845 98.162 57.3195 97.2692 57.2131C94.738 56.9116 91.5374 58.0632 89.2098 57.6261C86.0235 57.0276 83.9792 57.8217 88.7793 56.4962C90.3456 56.0637 91.8197 55.898 93.3612 55.5532C95.9016 54.9851 92.479 55.0689 92.1567 55.2414C91.2208 55.7424 89.0632 55.5337 91.3286 55.027C91.9119 54.8965 94.2919 54.7758 93.6083 54.5989C91.45 54.04 87.9668 55.7891 89.1904 54.2882C90.2186 53.0269 91.1286 53.0259 92.4555 53.4671C92.9071 53.6173 94.183 55.5808 93.4062 55.3797" stroke="#212121" stroke-width="4" stroke-linecap="round"/>
</svg>
