<svg width="848" height="526" viewBox="0 0 848 526" fill="none" xmlns="http://www.w3.org/2000/svg">
<rect width="848" height="526" fill="#FBFBFB"/>
<g filter="url(#filter0_i_706_3089)">
<path d="M468.915 83.9914C471.486 95.1629 473.736 105.898 476.445 116.512C482.199 139.053 488.956 161.329 493.687 184.139C494.79 189.454 495.74 194.809 496.505 200.181C496.704 202.263 496.609 204.355 496.223 206.39C495.746 209.65 493.979 210.864 490.962 209.948C488.972 209.272 487.026 208.448 485.138 207.482C482.751 206.352 480.406 205.114 477.908 203.856C477.444 204.249 477.005 204.672 476.591 205.125C473.578 208.842 470.548 212.545 467.597 216.318C464.495 220.281 461.157 220.962 456.318 217.935C453.246 216.012 450.264 213.92 447.233 211.92C446.801 211.635 446.318 211.439 445.686 211.113C443.05 214.206 440.458 217.287 437.828 220.33C433.981 224.783 434.028 225.356 427.001 222.677C422.899 221.112 419.066 218.687 414.922 216.552C411.39 219.888 407.673 223.442 403.91 226.94C399.587 230.959 395.351 229.517 393.654 223.486C393.534 223.06 393.458 222.622 393.369 222.187C389.634 203.94 385.901 185.693 382.169 167.446C379.046 152.13 375.938 136.811 372.846 121.489C371.839 116.497 370.915 111.487 369.851 105.956C369.138 106.093 368.185 106.297 367.225 106.456C365.819 106.787 364.384 106.979 362.939 107.029C362.188 107.002 361.011 106.317 360.806 105.668C360.675 105.165 360.646 104.642 360.719 104.131C360.792 103.621 360.966 103.135 361.23 102.707C361.938 101.927 362.863 101.409 363.875 101.224C373.831 98.8028 383.798 96.4266 393.774 94.0953C408.99 90.5216 424.192 86.8845 439.439 83.4501C452.062 80.6077 464.74 78.0194 477.395 75.3187C477.597 75.2758 477.801 75.2371 478.007 75.2121C480.512 74.9063 482.332 76.0202 482.616 78.0301C482.889 79.9577 481.696 81.4689 479.319 81.9711C476 82.6759 472.655 83.2719 468.915 83.9914ZM487.469 200.644C487.259 199.179 487.212 198.515 487.065 197.873C483.332 181.553 479.673 165.216 475.822 148.924C471.719 131.558 466.857 114.365 464.524 96.606C464.038 92.9109 463.144 89.2657 462.353 85.1547L376.95 104.688C384.765 142.688 393.635 180.301 401.468 218.473C402.218 217.866 402.721 217.515 403.157 217.088C404.893 215.392 406.467 213.471 408.36 212.001C412.58 208.719 415.681 207.622 420.203 210.672C423.842 213.125 428.143 214.433 432.053 216.206C433.242 214.769 434.155 213.736 434.995 212.638C436.485 210.692 437.943 208.716 439.393 206.735C441.779 203.48 444.716 202.516 448.435 203.853C449.422 204.222 450.39 204.653 451.333 205.144C454.529 206.761 457.711 208.408 460.993 210.093C464.001 206.646 466.935 203.296 469.855 199.933C473.187 196.096 475.736 195.503 480.387 197.526C482.576 198.478 484.765 199.45 487.469 200.644Z" fill="#8AFFF7" stroke="#212121" stroke-width="2"/>
<path d="M419.356 172.202L418.368 172.396C417.48 172.57 416.591 172.745 415.703 172.921C413.267 173.401 410.828 173.881 408.389 174.35C407.568 174.557 406.728 174.666 405.881 174.676L405.85 174.676L405.819 174.675C404.94 174.63 404.059 174.395 403.323 173.83C402.579 173.259 402.073 172.422 401.826 171.345C401.571 170.377 401.643 169.336 402.051 168.43L419.356 172.202ZM419.356 172.202L419.322 172.029M419.356 172.202L419.322 172.029M419.322 172.029C420.008 171.899 420.7 171.773 421.395 171.646C423.906 171.187 426.462 170.719 428.952 170.065L428.965 170.062L428.978 170.058C430.939 169.485 432.799 168.587 434.5 167.395L434.503 167.393C435.293 166.835 435.847 165.994 436.1 165.041L419.322 172.029ZM431.937 158.826C430.389 158.751 428.846 158.905 427.347 159.283L427.335 159.286L427.322 159.29C421.234 160.997 415.176 162.814 409.13 164.634C407.412 165.115 405.728 165.725 404.09 166.461C403.175 166.808 402.457 167.526 402.051 168.43L431.937 158.826Z" fill="#B6FFB9" stroke="#212121" stroke-width="2"/>
<path d="M404.778 140.453L403.777 140.65C403.541 140.696 403.292 140.749 403.034 140.804C402.426 140.933 401.77 141.073 401.134 141.158L401.133 141.158C399.942 141.315 398.83 141.154 397.9 140.622C396.963 140.086 396.299 139.223 395.925 138.144C395.119 135.827 396.11 133.362 398.536 132.162L398.539 132.16L398.539 132.16C400.612 131.146 402.744 130.284 404.925 129.579C409.752 127.997 414.606 126.451 419.508 125.082C421.156 124.607 422.888 124.553 424.58 124.917L424.591 124.92L424.603 124.922C426.341 125.341 427.548 126.551 427.978 128.052C428.408 129.549 428.041 131.244 426.843 132.606L426.838 132.612L426.832 132.619C425.63 133.937 424.157 134.922 422.522 135.486L422.522 135.486C420.412 136.213 418.223 136.761 416.083 137.296C415.187 137.52 414.299 137.742 413.43 137.975L404.778 140.453ZM404.778 140.453L404.747 140.304M404.778 140.453L404.747 140.304M404.747 140.304C407.64 139.525 410.534 138.748 413.429 137.975L404.747 140.304Z" fill="#B6FFB9" stroke="#212121" stroke-width="2"/>
<path d="M419.864 178.682L420.849 178.488C421.411 178.378 421.984 178.257 422.564 178.136C423.984 177.837 425.448 177.53 426.906 177.336C428.191 177.098 429.511 177.165 430.783 177.525L430.807 177.532L430.832 177.54C431.686 177.83 432.442 178.373 433.027 179.09L419.864 178.682ZM419.864 178.682L419.926 179.002M419.864 178.682L419.926 179.002M419.926 179.002C419.533 179.104 419.138 179.206 418.74 179.308C417.078 179.734 415.379 180.171 413.73 180.712L413.728 180.713C411.654 181.399 409.621 182.22 407.641 183.174C405.594 184.149 405.022 186.24 405.291 188.287L419.926 179.002ZM434.023 184.37L434.023 184.37C433.74 185.257 433.235 186.047 432.549 186.641L432.53 186.657L432.511 186.672C431.378 187.558 430.081 188.167 428.701 188.456C423.692 189.718 418.665 190.89 413.631 192.011M434.023 184.37L405.291 188.287C405.577 190.458 407.319 192.161 409.582 192.327L409.582 192.327L409.589 192.328C410.949 192.418 412.307 192.311 413.631 192.011M434.023 184.37C434.305 183.483 434.358 182.525 434.183 181.601C434.009 180.676 433.612 179.807 433.027 179.09L434.023 184.37ZM413.631 192.011C413.63 192.011 413.63 192.011 413.629 192.011L413.419 191.034M413.631 192.011C413.632 192.01 413.633 192.01 413.633 192.01L413.419 191.034M413.419 191.034C412.189 191.313 410.927 191.412 409.662 191.329L428.484 187.48C423.48 188.741 418.454 189.912 413.419 191.034Z" fill="#B6FFB9" stroke="#212121" stroke-width="2"/>
<path d="M403.563 123.767L402.582 123.96C402.1 124.055 401.611 124.155 401.118 124.256C399.894 124.507 398.641 124.764 397.392 124.957L397.392 124.957C397.32 124.968 397.241 124.981 397.158 124.994C396.809 125.051 396.374 125.122 395.96 125.144C395.442 125.172 394.799 125.137 394.208 124.824L394.201 124.82L394.201 124.82C393.071 124.208 392.147 123.231 391.539 122.043L391.532 122.029L391.525 122.015C390.702 120.272 391.301 118.436 392.605 117.319C393.372 116.65 394.241 116.13 395.177 115.783L395.186 115.78L395.195 115.777C398.967 114.459 402.762 113.165 406.594 111.995L403.563 123.767ZM403.563 123.767L403.524 123.56M403.563 123.767L403.524 123.56M403.524 123.56C403.727 123.526 403.93 123.493 404.136 123.46C404.497 123.402 404.867 123.343 405.256 123.274C406.186 123.111 407.151 122.907 408.095 122.571L408.098 122.57C409.836 121.947 411.472 121.039 412.954 119.876L412.954 119.875C414.324 118.799 415.09 116.629 414.034 114.775L414.03 114.766L414.025 114.758C413.231 113.423 412.066 112.38 410.691 111.815L410.675 111.808L410.659 111.802C409.288 111.293 407.689 111.661 406.595 111.995L403.524 123.56ZM402.396 122.977C401.897 123.076 401.398 123.178 400.899 123.28C399.685 123.529 398.47 123.778 397.247 123.967C397.159 123.981 397.069 123.995 396.979 124.01C396.194 124.137 395.322 124.279 394.68 123.938L402.396 122.977Z" fill="#B6FFB9" stroke="#212121" stroke-width="2"/>
<path d="M407.972 156.697L408.162 156.691L408.337 156.616C408.87 156.387 409.45 156.149 410.063 155.898C411.671 155.24 413.496 154.494 415.218 153.583C416.089 153.133 416.739 152.345 417.077 151.407C417.409 150.485 417.425 149.462 417.137 148.519C416.94 147.624 416.474 146.805 415.797 146.209C415.118 145.611 414.26 145.269 413.362 145.28C408.952 145.016 405.034 146.637 401.505 148.843L401.504 148.843C401.117 149.086 400.851 149.45 400.671 149.778C400.483 150.118 400.341 150.502 400.235 150.881C400.027 151.634 399.931 152.491 399.978 153.197L399.978 153.197C400.116 155.265 401.706 156.639 403.559 156.795C404.473 156.873 405.432 156.821 406.481 156.765C406.958 156.739 407.454 156.713 407.972 156.697Z" fill="#B6FFB9" stroke="#212121" stroke-width="2"/>
<path d="M447.72 130.646L447.55 130.653C447.051 130.674 446.526 130.712 445.983 130.751C444.572 130.853 443.046 130.964 441.586 130.799L441.584 130.799C440.899 130.72 440.151 130.34 439.59 129.929C439.297 129.714 439.012 129.46 438.781 129.18C438.562 128.914 438.327 128.545 438.258 128.104L447.72 130.646ZM447.72 130.646L447.878 130.583M447.72 130.646L447.878 130.583M447.878 130.583L449.829 129.807C449.877 129.796 449.928 129.784 449.977 129.773C450.048 129.756 450.121 129.737 450.184 129.72C450.215 129.712 450.248 129.703 450.279 129.694C450.295 129.689 450.314 129.683 450.334 129.677C450.344 129.673 450.356 129.669 450.37 129.664C450.383 129.659 450.402 129.652 450.425 129.643C450.436 129.638 450.451 129.631 450.468 129.623C450.484 129.615 450.507 129.604 450.534 129.588C450.548 129.581 450.565 129.571 450.583 129.559C450.591 129.554 450.599 129.548 450.608 129.542C452.027 129.056 453.36 128.3 454.337 127.376C455.43 126.342 456.258 124.905 455.848 123.327L455.848 123.327M447.878 130.583L455.848 123.327M439.536 124.08L439.536 124.08C439.837 123.563 440.311 123.248 440.693 123.048C441.04 122.867 441.42 122.728 441.702 122.625C441.734 122.613 441.764 122.602 441.793 122.591L441.794 122.591C441.895 122.554 441.996 122.517 442.097 122.479C444.19 121.708 446.322 120.923 448.493 120.276L439.536 124.08ZM439.536 124.08C439.244 124.582 438.88 125.217 438.614 125.876M439.536 124.08L438.614 125.876M455.848 123.327C455.086 120.398 451.682 119.325 448.493 120.276L455.848 123.327ZM438.614 125.876C438.354 126.519 438.134 127.312 438.258 128.104L438.614 125.876Z" fill="#B6FFB9" stroke="#212121" stroke-width="2"/>
<path d="M463.576 178.65C466.023 177.572 467.126 175.216 466.501 172.868L466.501 172.868C465.879 170.534 463.624 169.013 460.957 169.772L460.956 169.772C457.835 170.66 454.794 171.833 451.814 173.019C450.939 173.34 450.247 174.012 449.845 174.861L449.845 174.861C449.45 175.697 449.355 176.659 449.557 177.568C449.683 178.501 450.123 179.375 450.81 179.999L450.81 179.999C451.505 180.632 452.414 180.97 453.349 180.886C454.569 180.842 455.803 180.717 456.745 180.622C457.086 180.587 457.388 180.556 457.638 180.535L457.747 180.526L457.851 180.493C458.544 180.275 459.205 180.084 459.838 179.902C461.203 179.507 462.438 179.151 463.576 178.65ZM463.576 178.65L463.18 177.733M463.576 178.65L463.18 177.733M463.18 177.733C462.104 178.207 460.973 178.533 459.649 178.915C459.004 179.101 458.312 179.301 457.559 179.537L452.163 173.955C455.145 172.768 458.15 171.61 461.223 170.735C463.325 170.137 465.049 171.304 465.536 173.132C466.029 174.985 465.189 176.848 463.18 177.733Z" fill="#B6FFB9" stroke="#212121" stroke-width="2"/>
<path d="M454.178 165.02L454.322 165.016L454.458 164.971C455.818 164.524 457.147 163.977 458.436 163.334L458.462 163.321L458.488 163.306C460.677 162.049 461.589 159.381 460.862 157.187C460.059 154.762 457.667 153.262 454.995 154.094L454.995 154.094L454.984 154.097C452.643 154.856 450.35 155.77 448.114 156.831C447.215 157.19 446.506 157.9 446.094 158.79C445.679 159.687 445.585 160.718 445.808 161.69C446.026 162.733 446.516 163.585 447.237 164.185C447.957 164.785 448.846 165.084 449.776 165.132L449.777 165.132C450.759 165.182 451.771 165.132 452.808 165.08C453.26 165.058 453.717 165.035 454.178 165.02Z" fill="#B6FFB9" stroke="#212121" stroke-width="2"/>
<path d="M443.146 141.56L442.216 141.202C442.059 141.607 441.983 142.04 441.988 142.474L441.988 142.474C441.993 142.908 442.078 143.338 442.238 143.739L442.238 143.739L442.241 143.747C442.466 144.299 442.839 144.88 443.265 145.351C443.665 145.792 444.248 146.289 444.936 146.428L444.968 146.434L445 146.439C446.489 146.64 447.988 146.68 449.475 146.56L449.545 146.554L449.613 146.539C451.105 146.206 452.576 145.775 454.017 145.25L454.052 145.237L454.086 145.222C456.083 144.323 457.22 142.225 456.815 140.307L456.809 140.279L456.801 140.251C456.525 139.236 455.93 138.334 455.099 137.727C454.265 137.118 453.246 136.847 452.234 137.008L452.209 137.012L452.185 137.017C449.394 137.606 446.652 138.419 443.98 139.45C443.577 139.59 443.214 139.822 442.913 140.123L443.616 140.83M443.146 141.56L442.215 141.204C442.371 140.8 442.606 140.429 442.914 140.123L443.616 140.83M443.146 141.56C443.254 141.28 443.414 141.031 443.616 140.83M443.146 141.56C443.037 141.84 442.983 142.145 442.986 142.456C442.99 142.766 443.051 143.075 443.165 143.362C443.521 144.234 444.396 145.296 445.14 145.446C446.559 145.638 447.987 145.676 449.402 145.562L444.316 140.39C444.056 140.479 443.817 140.628 443.616 140.83" fill="#B6FFB9" stroke="#212121" stroke-width="2"/>
</g>
<g filter="url(#filter1_i_706_3089)">
<path d="M289.176 322.247C287.333 333.109 285.546 343.977 283.623 354.827C282.772 359.624 281.581 364.361 280.669 369.149C279.463 375.474 273.875 378.777 267.708 377.815C252.885 375.504 238.065 373.146 223.304 370.472C211.298 368.298 199.368 365.699 187.433 363.155C184.088 362.381 180.79 361.416 177.555 360.266C173.505 358.903 170.545 353.393 171.176 348.795C173.993 328.304 177.484 307.923 181.051 287.554C183.747 272.162 186.346 256.754 188.847 241.328C189.375 238.095 189.914 234.921 191.595 232.062C193.857 228.213 196.567 225.505 203.007 226.399C223.159 229.195 243.275 232.161 263.134 236.667C265.248 237.146 267.369 237.619 269.508 237.937C270.312 238.057 271.085 238.336 271.78 238.759C272.475 239.181 273.079 239.737 273.557 240.396C280.443 249.117 287.296 257.865 294.239 266.541C296.169 268.955 296.96 271.492 296.463 274.57C293.904 290.441 291.417 306.323 288.905 322.202L289.176 322.247ZM264.35 243.679C262.816 243.278 261.533 242.868 260.221 242.611C249.047 240.422 237.869 238.251 226.689 236.096C221.634 235.122 216.572 234.19 211.51 233.254C208.938 232.78 206.373 232.238 203.781 231.912C200.159 231.456 198.863 232.284 197.592 235.68C196.352 238.884 195.593 242.254 195.341 245.68C195.217 247.572 194.99 249.455 194.659 251.321C189.101 282.797 183.53 314.27 177.946 345.74C177.796 346.447 177.702 347.165 177.665 347.886C177.598 352.06 179.299 354.878 183.698 355.848C200.741 359.602 217.909 362.661 235.134 365.433C243.877 366.841 252.608 368.327 261.344 369.787C263.48 370.143 265.603 370.61 267.751 370.873C271.278 371.304 273.46 369.71 274.051 366.173C274.691 362.35 275.078 358.484 275.697 354.657C276.445 350.022 277.425 345.423 278.118 340.781C279.826 329.354 281.304 317.891 283.111 306.48C284.552 297.386 286.345 288.348 287.979 279.282C288.116 278.512 288.254 277.742 288.393 276.959C288.075 276.819 287.747 276.703 287.412 276.611C281.968 275.751 276.513 274.954 271.081 274.02C269.39 273.733 267.741 273.24 266.17 272.553C262.957 271.131 262.131 269.656 262.388 266.17C262.621 263.021 262.966 259.88 263.24 256.734C263.612 252.51 263.96 248.29 264.35 243.676L264.35 243.679ZM286.192 269.074L270.967 249.362L270.497 249.574C270.353 255.398 270.211 261.219 270.063 267.203L286.192 269.074Z" fill="#F78AFF" stroke="#212121" stroke-width="2"/>
<path d="M225.111 353.072C213.847 350.852 202.585 348.627 191.323 346.4C190.091 346.119 188.874 345.773 187.679 345.362C186.068 344.86 185.38 343.7 185.492 342.056C185.533 341.156 185.634 340.259 185.793 339.373C188.555 325.747 191.325 312.123 194.104 298.499C194.531 296.391 194.838 294.259 195.18 292.135C195.403 290.754 196.326 290.382 197.54 290.509C200.415 290.807 203.297 291.067 206.154 291.493C219.562 293.487 232.951 295.618 246.372 297.52C252.45 298.383 258.59 298.807 264.698 299.475C266.942 299.72 269.187 300.02 271.405 300.433C273.748 300.869 274.906 302.11 275.094 304.453C275.2 306.074 275.172 307.699 275.011 309.315C274.691 313.088 274.425 316.875 273.875 320.619C272.407 330.624 270.81 340.612 269.24 350.602C268.945 352.474 268.586 354.341 268.161 356.188C267.521 358.972 266.295 360.046 263.466 360.15C261.932 360.218 260.395 360.108 258.886 359.822C249.404 357.926 239.933 355.946 230.456 354.012C228.685 353.651 226.898 353.371 225.118 353.054L225.111 353.072ZM215.834 308.036C209.514 306.688 203.45 305.429 197.051 304.789C195.06 317.152 193.103 329.301 191.136 341.514L207.545 344.441C210.295 332.363 213.011 320.433 215.834 308.036ZM221.637 304.188C222.89 304.411 223.769 304.568 224.646 304.725C233.192 306.252 241.739 307.78 250.285 309.308C254.826 310.118 259.363 310.946 263.913 311.696C265.285 311.922 266.696 311.91 268.155 312.011C268.326 309.698 268.47 307.754 268.608 305.892L222.148 298.797C221.985 300.503 221.827 302.177 221.637 304.188ZM217.58 297.967C213.828 296.771 200.385 294.548 198.387 294.775C198.154 296.681 197.921 298.609 197.688 300.528L216.638 303.247L217.58 297.967ZM246.664 351.022L247.724 345.077C242.303 343.955 237.065 342.925 231.776 342.188L230.708 348.175L246.664 351.022ZM248.242 339.77L249.147 334.694C243.907 333.854 238.951 332.72 233.769 332.424C233.363 334.177 233.009 335.707 232.602 337.465L248.242 339.77ZM234.948 327.268L249.791 329.916L250.659 325.049L235.814 322.401L234.948 327.268ZM236.684 317.421L251.64 320.09L252.508 315.227L237.549 312.558L236.684 317.421ZM219.006 319.118C218.316 321.326 217.909 323.612 217.795 325.923L229.642 326.921C230.149 324.9 230.578 323.196 231.061 321.271L219.006 319.118ZM232.875 311.425L220.975 309.302L219.996 314.786L231.895 316.909L232.875 311.425ZM225.716 347.272C225.951 345.206 226.158 343.384 226.366 341.554L215.07 339.539L214.062 345.193L225.716 347.272ZM261.787 347.46L252.578 345.893L251.496 351.958C254.928 352.57 258.199 353.163 261.476 353.725C261.821 353.731 261.704 352.984 261.704 352.984C261.664 350.922 262.418 349.585 262.38 347.643L261.787 347.46ZM227.365 336.7C227.846 334.879 228.244 333.369 228.731 331.524L216.948 329.984L215.99 335.351L227.365 336.7ZM266.204 322.819L267.055 318.049L256.324 316.135L255.473 320.905L266.204 322.819ZM253.153 340.524C256.55 341.386 260.047 341.792 263.55 341.734C263.754 340.053 263.933 338.571 264.142 336.848L253.676 335.62C253.48 337.44 253.323 338.927 253.153 340.524ZM254.247 330.366L264.552 332.204L265.325 327.867L254.757 325.982C254.578 327.506 254.167 329.672 253.988 331.208L254.247 330.366Z" fill="#FFF78A" stroke="#212121" stroke-width="1.5"/>
</g>
<g filter="url(#filter2_i_706_3089)">
<path d="M640.462 328.02L640.401 328.029C639.623 328.144 638.845 328.267 638.069 328.39L637.968 328.404C637 328.557 636.033 328.71 635.06 328.846L634.779 328.886C625.167 330.278 615.654 332.284 606.298 334.893C605.543 335.099 603.246 335.725 603.497 338.271C603.676 340.079 605.094 341.174 607.198 341.129C608.24 341.091 609.277 340.968 610.3 340.763C614.214 340.043 618.127 339.317 622.04 338.585L623.084 338.39C625.779 337.888 628.476 337.387 631.173 336.888C631.361 336.853 631.553 336.821 631.75 336.791L603.232 365.919L596.471 361.269C591.628 357.933 586.621 354.484 581.671 351.124C578.693 349.103 576.396 349.335 574.224 351.878L572.91 353.415C567.915 359.263 562.75 365.31 557.732 371.308C552.206 377.911 546.77 384.575 542.652 389.643C541.732 390.792 540.951 392.046 540.325 393.378C539.998 394.044 539.927 394.806 540.124 395.522C540.321 396.237 540.773 396.856 541.394 397.261C542.046 397.765 542.871 397.99 543.689 397.888C544.213 397.809 544.709 397.604 545.135 397.29L545.485 397.041C546.11 396.635 546.687 396.161 547.205 395.626L548.435 394.271C551.223 391.195 554.106 388.011 556.85 384.796C562.135 378.608 567.488 372.273 572.662 366.146L572.753 366.038C574.753 363.669 576.757 361.297 578.767 358.922L579.078 359.092C579.471 359.295 579.853 359.519 580.222 359.762L584.399 362.667C589.75 366.388 595.284 370.235 600.688 374.064C603.641 376.158 605.65 376.046 608.098 373.662C608.491 373.279 608.864 372.877 609.247 372.464L609.331 372.373C609.555 372.133 609.778 371.892 610.008 371.656C618.539 362.889 627.074 354.126 635.612 345.365C636.067 344.9 636.547 344.45 637.053 343.98C636.75 346.655 636.445 349.329 636.136 352.005L636.035 352.886C635.703 355.764 635.375 358.642 635.05 361.52L635.012 361.847C634.872 362.707 634.85 363.581 634.945 364.446C635.098 365.38 635.543 366.241 636.218 366.903C636.893 367.567 637.761 367.997 638.698 368.133C639.633 368.268 640.588 368.102 641.423 367.657C642.258 367.212 642.93 366.514 643.341 365.661C643.763 364.744 644.019 363.759 644.098 362.752C644.737 354.078 645.486 343.778 646.185 333.154C646.301 331.403 645.835 329.991 644.836 329.071C643.808 328.126 642.297 327.763 640.462 328.02Z" fill="#F78AFF" stroke="#212121" stroke-width="1.5"/>
<path d="M672.505 365.24C670.182 352.541 668.076 341.461 666.07 331.369C664.693 324.447 662.839 315.346 660.69 306.322C657.56 293.153 645.472 285 631.294 286.493C620.799 287.597 610.151 288.937 599.849 290.233C596.911 290.603 593.939 291.045 591.062 291.473C586.344 292.176 581.464 292.903 576.648 293.319C565.71 294.27 554.265 296.362 539.549 300.109C529.976 302.547 523.06 306.431 517.78 312.334C513.428 317.199 511.7 322.375 512.499 328.161C512.755 330.024 512.983 331.917 513.173 333.787C513.342 335.433 513.463 337.123 513.583 338.757C513.762 342.265 514.167 345.758 514.796 349.213C515.091 350.649 515.388 352.085 515.687 353.521C518.02 364.768 520.432 376.396 521.277 388.088C521.626 392.911 522.397 397.771 523.141 402.468L523.306 403.508C524.581 411.57 526.759 418.509 529.964 424.719C533.422 431.42 538.818 435.033 546.003 435.457C550.452 435.75 554.918 435.691 559.358 435.278C567.615 434.463 575.992 433.478 584.093 432.526C587.386 432.14 590.681 431.757 593.975 431.376L593.987 431.374C594.097 431.358 594.198 431.307 594.278 431.229L596.879 430.864C599.047 430.56 601.217 430.256 603.39 429.952L606.835 429.474C620.439 427.596 634.502 425.652 647.928 421.576C652.61 420.155 658.055 418.323 662.945 415.514C672.756 409.878 677.286 401.387 676.409 390.277C675.844 383.136 674.523 376.054 673.242 369.206C672.995 367.885 672.749 366.563 672.505 365.24ZM528.804 377.511C527.597 370.141 526.109 362.241 524.122 352.651C522.554 345.077 520.838 335.043 521.508 324.535C521.537 324.389 521.537 324.238 521.508 324.092C520.215 318.424 523.999 315.602 528.001 312.616L528.14 312.512C532.022 309.614 536.568 308.159 540.89 306.916C550.744 304.188 560.777 302.157 570.916 300.838C575.135 300.247 579.305 299.733 583.398 299.247C590.839 298.363 598.398 297.407 605.706 296.482C612.084 295.675 618.678 294.841 625.17 294.058C628.175 293.674 631.205 293.51 634.234 293.569C645.132 293.85 651.994 299.949 654.075 311.206C655.783 320.446 657.481 329.847 659.123 338.942C660.357 345.769 661.594 352.596 662.838 359.422C663.287 361.883 663.782 364.378 664.259 366.789C665.009 370.576 665.784 374.492 666.407 378.36C667.144 382.941 667.548 387.672 667.9 392.125C668.412 398.618 665.307 403.717 658.673 407.278C654.6 409.383 650.32 411.061 645.901 412.285C631.055 416.671 615.478 418.752 600.416 420.766L598.426 421.032C597.645 421.136 596.866 421.247 596.085 421.36L594.974 421.516C594.876 421.529 594.783 421.566 594.701 421.623C594.62 421.679 594.553 421.754 594.506 421.84C591.196 422.219 587.886 422.6 584.577 422.983C574.914 424.096 564.924 425.247 555.09 426.298C552.547 426.499 549.992 426.504 547.448 426.31L546.985 426.288C542.736 426.073 539.61 423.907 537.692 419.842C534.753 413.48 532.781 406.715 531.84 399.77C531.373 396.597 530.966 393.364 530.571 390.233C530.04 386.056 529.496 381.738 528.804 377.511Z" fill="#B6FFB9" stroke="#212121" stroke-width="2"/>
</g>
<defs>
<filter id="filter0_i_706_3089" x="359" y="73.9999" width="149.464" height="165.146" filterUnits="userSpaceOnUse" color-interpolation-filters="sRGB">
<feFlood flood-opacity="0" result="BackgroundImageFix"/>
<feBlend mode="normal" in="SourceGraphic" in2="BackgroundImageFix" result="shape"/>
<feColorMatrix in="SourceAlpha" type="matrix" values="0 0 0 0 0 0 0 0 0 0 0 0 0 0 0 0 0 0 127 0" result="hardAlpha"/>
<feOffset dy="4"/>
<feGaussianBlur stdDeviation="2"/>
<feComposite in2="hardAlpha" operator="arithmetic" k2="-1" k3="1"/>
<feColorMatrix type="matrix" values="0 0 0 0 0.129412 0 0 0 0 0.129412 0 0 0 0 0.129412 0 0 0 0.15 0"/>
<feBlend mode="normal" in2="shape" result="effect1_innerShadow_706_3089"/>
</filter>
<filter id="filter1_i_706_3089" x="167" y="223" width="136.927" height="161.865" filterUnits="userSpaceOnUse" color-interpolation-filters="sRGB">
<feFlood flood-opacity="0" result="BackgroundImageFix"/>
<feBlend mode="normal" in="SourceGraphic" in2="BackgroundImageFix" result="shape"/>
<feColorMatrix in="SourceAlpha" type="matrix" values="0 0 0 0 0 0 0 0 0 0 0 0 0 0 0 0 0 0 127 0" result="hardAlpha"/>
<feOffset dy="4"/>
<feGaussianBlur stdDeviation="2"/>
<feComposite in2="hardAlpha" operator="arithmetic" k2="-1" k3="1"/>
<feColorMatrix type="matrix" values="0 0 0 0 0.129412 0 0 0 0 0.129412 0 0 0 0 0.129412 0 0 0 0.2 0"/>
<feBlend mode="normal" in2="shape" result="effect1_innerShadow_706_3089"/>
</filter>
<filter id="filter2_i_706_3089" x="508" y="281" width="172.738" height="164.135" filterUnits="userSpaceOnUse" color-interpolation-filters="sRGB">
<feFlood flood-opacity="0" result="BackgroundImageFix"/>
<feBlend mode="normal" in="SourceGraphic" in2="BackgroundImageFix" result="shape"/>
<feColorMatrix in="SourceAlpha" type="matrix" values="0 0 0 0 0 0 0 0 0 0 0 0 0 0 0 0 0 0 127 0" result="hardAlpha"/>
<feOffset dy="4"/>
<feGaussianBlur stdDeviation="2"/>
<feComposite in2="hardAlpha" operator="arithmetic" k2="-1" k3="1"/>
<feColorMatrix type="matrix" values="0 0 0 0 0.129412 0 0 0 0 0.129412 0 0 0 0 0.129412 0 0 0 0.2 0"/>
<feBlend mode="normal" in2="shape" result="effect1_innerShadow_706_3089"/>
</filter>
</defs>
</svg>
